# xmcd CD database file
# Copyright (C) 1993-1998 Ti Kan
# 
# Track frame offsets:
#     150
#     11285
#     26222
#     37460
#     48957
#     68092
#     89332
#     105107
#     113812
#     129167
#     139712
#     154380
#     162805
# 
# Disc length: 2412 seconds
# 
# Revision: 1
# Processed by: cddbd v1.4b41PL1 Copyright (c) Steve Scherf et al.
# Submitted via: DiscPlay 4.0.4
# 
DISCID=a1096a0d
DTITLE=Flying J Wranglers - Ridin' Home
DYEAR=1900
DGENRE=
TTITLE0=Texas Plains
TTITLE1=Ridin' Home
TTITLE2=Shy Anne From Old Cheyenne
TTITLE3=Song of the Bandit
TTITLE4=Silver Spurs
TTITLE5=Nightriders Lament
TTITLE6=When Staurdy Rolled Around
TTITLE7=Ride Cowboy Ride
TTITLE8=Cindy's Song
TTITLE9=Cowboy Sweetheart
TTITLE10=Teardrops in My Heart
TTITLE11=Tom and Jerry
TTITLE12=Song for New Mexico
EXTD=
EXTT0=
EXTT1=
EXTT2=
EXTT3=
EXTT4=
EXTT5=
EXTT6=
EXTT7=
EXTT8=
EXTT9=
EXTT10=
EXTT11=
EXTT12=
PLAYORDER=
